# xmcd
#
# Track frame offsets:
#	150
#	30637
#	60780
#	90958
#	129703
#	177392
#
# Disc length: 2823 seconds
#
# Revision: 1
# Processed by: cddbd v1.5.2PL0 Copyright (c) Steve Scherf et al.
# Submitted via: audiograbber 1.83.01
#
DISCID=400b0506
DTITLE=Rihanna - Rihanna
DYEAR=2008
DGENRE=Dance
TTITLE0=Dont Stop The Music (The Wideboys Dub Mix)
TTITLE1=Dont Stop The Music (The Wideboys Club Mix)
TTITLE2=Dont Stop The Music (House Mix)
TTITLE3=Dont Stop The Music (Jody Den Broeder Big Room Dub)
TTITLE4=Dont Stop The Music (Jody Den Broeder Big Room Mix)
TTITLE5=Dont Stop The Music (Solitaires More Drama Dub)
EXTD=
EXTT0=
EXTT1=
EXTT2=
EXTT3=
EXTT4=
EXTT5=
PLAYORDER=
